<svg width="108" height="108" viewBox="0 0 108 108" fill="none" xmlns="http://www.w3.org/2000/svg">
<path d="M57.8698 95.3951C31.0059 97.9046 15.645 85.8237 16.8048 70.4338C17.9882 55.0439 23.5503 55.1771 49.7752 54.0223C76 52.8675 85.2071 60.2627 89.9172 72.5435C94.6272 84.8243 80.7811 93.2632 57.8698 95.3951Z" fill="#FFB96C"/>
<path d="M50.9586 96.1489C39.1953 96.1489 29.5148 93.1287 23.2426 87.3991C18.2486 82.8243 15.858 76.9615 16.3551 70.4103C17.5385 55.0204 23.361 54.7539 47.929 53.6879L49.7752 53.5991C62.3432 53.0439 71.6213 54.443 78.1539 57.863C83.8343 60.8388 87.6923 65.458 90.3432 72.409C91.8817 76.4508 91.5266 80.1816 89.3018 83.4906C84.9467 89.953 73.7988 94.3279 57.8935 95.8158L57.8462 95.3939L57.8935 95.8158C55.5266 96.0379 53.2071 96.1489 50.9586 96.1489ZM55.0533 54.3097C53.3965 54.3097 51.645 54.3542 49.8225 54.4208L47.9763 54.5096C23.4793 55.5978 18.3906 55.8199 17.2781 70.4547C16.8048 76.7395 19.077 82.4024 23.8817 86.7773C31.148 93.4174 43.1953 96.3266 57.8225 94.9497C73.2071 93.5062 84.4024 89.1757 88.5444 83.0242C90.6272 79.9374 90.9586 76.4508 89.4911 72.6755C85.3018 61.6827 77.6568 54.3097 55.0533 54.3097Z" fill="black"/>
<path d="M51.7384 56.9073C70.5077 57.307 125.253 86.5545 60.1881 94.6603C-4.87696 102.766 18.0816 56.1745 51.7384 56.9073Z" fill="#CCC7B4"/>
<path d="M46.2249 95.6826C41.5148 95.6826 37.3491 95.2828 33.7278 94.5056C27.645 93.1953 23.3373 90.8413 20.8757 87.5102C17.9172 83.4684 17.9882 78.0719 21.0651 72.6977C23.574 68.3228 27.858 64.3254 33.0888 61.4384C38.8166 58.2849 45.2781 56.686 51.7397 56.8192C57.7752 56.9525 67.432 60.0171 75.7633 64.4364C85.3254 69.522 90.9586 75.1849 91.2426 80.004C91.432 83.2907 89.2071 86.1777 84.6391 88.5539C79.4556 91.2633 71.2426 93.3286 60.213 94.7055C55.1243 95.3717 50.4615 95.6826 46.2249 95.6826ZM50.9349 56.9747C36.7574 56.9747 25.6095 65.1027 21.2071 72.7865C18.1539 78.1163 18.0592 83.4684 20.9941 87.4436C26.2249 94.55 40.142 97.1039 60.1894 94.5944C80.8047 92.0183 91.4793 86.9994 91.0769 80.0484C90.7929 75.296 85.1834 69.6552 75.6686 64.5919C67.361 60.1726 57.7278 57.1079 51.716 56.9747C51.4793 56.9747 51.1953 56.9747 50.9349 56.9747Z" fill="black"/>
<path d="M12.852 90.3763L26.8165 87.0007C26.8165 87.0007 28.923 87.3116 29.3017 90.3096L15.8343 94.7512L12.852 90.3763Z" fill="#FFB96C"/>
<path d="M15.6687 95.2607L12.142 90.1085L26.8166 86.5775L26.9113 86.5997C27.0059 86.6219 29.3491 86.9994 29.7752 90.2862L29.8225 90.6193L15.6687 95.2607ZM13.5858 90.6415L16.071 94.2391L28.8284 90.0419C28.4497 87.9988 27.1953 87.5324 26.8403 87.4436L13.5858 90.6415Z" fill="black"/>
<path d="M14.2722 93.7074L5.94083 95.1509C5.94083 95.1509 7.78698 86.8897 12.8521 90.3763" fill="#FFB96C"/>
<path d="M5.37274 95.6826L5.51475 95.0608C5.56209 94.8609 6.60351 90.2861 9.39642 89.2868C10.5562 88.8648 11.8106 89.1313 13.1361 90.0418C13.3254 90.1751 13.3728 90.4416 13.2307 90.6414C13.0887 90.8191 12.8047 90.8635 12.5917 90.7303C11.5266 89.9974 10.5562 89.7753 9.70411 90.0863C7.92896 90.7303 6.93487 93.3952 6.55618 94.6166L14.1775 93.2842C14.4142 93.2397 14.6509 93.3952 14.6982 93.6173C14.7455 93.8393 14.5799 94.0614 14.3432 94.1058L5.37274 95.6826Z" fill="black"/>
<path d="M16.1183 90.887C11.0532 87.4004 9.75146 96.3056 9.75146 96.3056L17.5148 94.1959" fill="#FFB96C"/>
<path d="M9.20706 96.904L9.30174 96.26C9.3254 96.0379 10.1065 90.9524 12.8284 89.8642C13.8934 89.4423 15.1005 89.6643 16.3786 90.5527C16.568 90.6859 16.6153 90.9524 16.4733 91.1523C16.3313 91.3299 16.0473 91.3743 15.8343 91.2411C14.8165 90.5527 13.9408 90.3528 13.1834 90.6637C11.5503 91.3077 10.6508 94.1281 10.3195 95.7492L17.3964 93.8172C17.6331 93.7506 17.8934 93.8838 17.9644 94.1059C18.0355 94.328 17.8934 94.5722 17.6568 94.6389L9.20706 96.904Z" fill="black"/>
<path d="M25.8462 87.3561C25.8462 87.3561 19.8107 81.8708 21.6095 79.1837C26.7693 71.4777 31.0296 79.1171 31.0296 79.1171C25.5148 84.8245 32.0947 91.3091 32.0947 91.3091L21.7278 94.5292L13.7752 96.8832C13.7752 96.8832 15.2663 88.9329 20.3314 91.7977" fill="#FFB96C"/>
<path d="M13.2071 97.4814L13.3254 96.793C13.3491 96.5931 14.2248 92.1516 16.923 90.9968C18.0355 90.5304 19.2426 90.6637 20.568 91.3965C20.781 91.5075 20.852 91.774 20.7337 91.9739C20.6153 92.1738 20.3313 92.2404 20.1183 92.1294C19.0532 91.5298 18.1301 91.4187 17.3254 91.774C15.6213 92.5069 14.7455 95.0164 14.4142 96.2378L21.6331 94.0836L31.3609 91.0634C29.9645 89.42 26.0355 83.9792 30.5088 79.0269C30.0355 78.294 28.497 76.2065 26.5088 76.1177C24.994 76.0732 23.5029 77.1614 22.0118 79.36C20.6863 81.3142 24.568 85.5559 26.1775 87.0216C26.3668 87.1771 26.3668 87.4435 26.1775 87.6212C26.0118 87.7989 25.7278 87.7989 25.5384 87.6212C24.8994 87.0438 19.3136 81.8028 21.2544 78.9158C22.9112 76.4286 24.6863 75.2071 26.5562 75.2738C29.4911 75.3848 31.3846 78.7382 31.4792 78.8714L31.6213 79.1379L31.4082 79.36C26.2485 84.6898 32.213 90.7081 32.4733 90.9746L32.9704 91.4631L21.9171 94.8831L13.2071 97.4814Z" fill="black"/>
<path d="M93.8936 89.2881L79.9054 85.9569C79.9054 85.9569 77.7989 86.2678 77.4202 89.2881L90.8876 93.6852L93.8936 89.2881Z" fill="#FFB96C"/>
<path d="M91.1006 94.1947L76.9467 89.5755L76.9941 89.2424C77.3964 85.9557 79.7396 85.5559 79.8343 85.5559L79.929 85.5337L94.6035 89.0203L91.1006 94.1947ZM77.9408 89.0203L90.7219 93.1954L93.1834 89.5755L79.9053 86.422C79.574 86.4886 78.2959 86.955 77.9408 89.0203Z" fill="black"/>
<path d="M90.8876 93.5741L99.2189 94.9954C99.2189 94.9954 97.3491 86.7341 92.284 90.243" fill="#FFB96C"/>
<path d="M99.8107 95.5049L90.8166 93.9726C90.58 93.9282 90.4143 93.7061 90.4616 93.484C90.509 93.2619 90.7456 93.1065 90.9823 93.1509L98.6036 94.4612C98.2249 93.2397 97.2308 90.5748 95.432 89.9308C94.58 89.6199 93.6095 89.842 92.5445 90.5748C92.3551 90.7081 92.0711 90.6636 91.9054 90.486C91.7634 90.3083 91.8107 90.0418 92.0001 89.8864C93.3255 88.9759 94.58 88.7094 95.7397 89.1313C98.5326 90.1307 99.5977 94.7054 99.645 94.8831L99.8107 95.5049Z" fill="black"/>
<path d="M89.0415 90.7537C94.1066 87.2449 95.432 96.1502 95.432 96.1502L87.645 94.0627" fill="#FFB96C"/>
<path d="M95.9527 96.7486L87.503 94.4834C87.2663 94.4168 87.1243 94.1947 87.1953 93.9504C87.2663 93.7283 87.5267 93.5951 87.7634 93.6617L94.8403 95.5494C94.4852 93.9282 93.5858 91.13 91.9527 90.486C91.1953 90.1973 90.2959 90.3972 89.3018 91.0856C89.1125 91.2189 88.8284 91.1745 88.6628 90.9968C88.5208 90.8191 88.5681 90.5526 88.7574 90.3972C90.0355 89.5089 91.219 89.2868 92.3077 89.7088C95.0533 90.7969 95.8344 95.8825 95.858 96.0823L95.9527 96.7486Z" fill="black"/>
<path d="M85.1124 85.9349C85.1124 85.9349 85.3018 81.7376 83.503 79.0727C78.3195 71.3888 74.0828 79.0505 74.0828 79.0505C79.6213 84.7356 73.0651 91.2425 73.0651 91.2425L83.4556 94.4182L91.432 96.75C91.432 96.75 89.9172 88.7996 84.8521 91.6866" fill="#FFB96C"/>
<path d="M91.9763 97.3482L83.2899 94.7943L72.213 91.3965L72.7101 90.908C72.9704 90.6637 78.9112 84.6232 73.7278 79.2934L73.5148 79.0713L73.6568 78.8048C73.7278 78.6715 75.6213 75.296 78.5562 75.1849C80.4024 75.0961 82.1775 76.3175 83.858 78.8048C85.7278 81.5585 85.5621 85.7336 85.5385 85.9112C85.5385 86.1555 85.3255 86.311 85.0651 86.311C84.8047 86.311 84.6154 86.1111 84.6391 85.8668C84.6391 85.8224 84.8047 81.7806 83.1006 79.2489C81.6095 77.0504 80.0947 75.9622 78.6036 76.0288C76.5917 76.1177 75.0769 78.2052 74.6035 78.938C79.1006 83.8681 75.1953 89.3312 73.7988 90.9746L83.5503 93.9948L90.7692 96.1045C90.4379 94.8609 89.5385 92.3737 87.8343 91.6408C87.0059 91.2855 86.0828 91.4187 85.0414 92.0183C84.8284 92.1294 84.5444 92.085 84.426 91.8851C84.3077 91.6852 84.355 91.4187 84.5681 91.3077C85.8698 90.5526 87.1006 90.4194 88.213 90.8857C90.9113 92.0405 91.787 96.4821 91.8343 96.6597L91.9763 97.3482Z" fill="black"/>
<path d="M66.3196 64.1711C70.6036 98.282 107.195 88.0443 107.195 88.0443C93.4675 74.3866 98.6983 79.4943 91.148 67.2357C85.9172 58.7302 80.4497 53.5558 76.2131 52.0235C76.2131 52.0235 67.4793 50.3357 64.0237 51.757" fill="#FFB96C"/>
<path d="M95.3846 89.8864C89.9645 89.8864 83.5266 88.9536 78.0592 85.5781C71.2189 81.3586 67.1243 74.1634 65.8698 64.2365C65.8462 64.0145 66.0118 63.7924 66.2722 63.7702C66.5089 63.748 66.7456 63.9034 66.7692 64.1477C67.9763 73.8302 71.9527 80.8034 78.5562 84.8896C88.9941 91.3299 103.03 88.6205 106.343 87.8433C96.9467 78.4716 96.8521 78.3162 94.7692 74.4521C93.9645 72.9419 92.8521 70.8988 90.7456 67.4789C85.8935 59.5729 80.5444 54.1098 76.0947 52.4665C75.4793 52.3554 67.3846 50.8897 64.213 52.1778C63.9763 52.2666 63.716 52.1778 63.6213 51.9557C63.5266 51.7336 63.6213 51.4893 63.858 51.4005C67.4083 49.957 75.9527 51.556 76.3077 51.6448L76.3787 51.667C81.0414 53.377 86.5562 58.9955 91.5266 67.0791C93.6331 70.5213 94.7456 72.5866 95.574 74.0967C97.6331 77.9387 97.6805 78.0053 107.503 87.7989L108 88.3096L107.29 88.5095C107.219 88.4873 102.059 89.8864 95.3846 89.8864Z" fill="black"/>
<path d="M83.3136 61.4618C78.3432 55.3991 70.2249 59.0856 70.2249 59.0856L83.3136 61.4618Z" fill="#FFB96C"/>
<path d="M83.3135 61.8826C83.1715 61.8826 83.0532 61.816 82.9585 61.7271C78.2721 56.0198 70.7455 59.3287 70.4141 59.462C70.2011 59.573 69.9171 59.4842 69.8224 59.2621C69.7041 59.0622 69.7988 58.7957 70.0354 58.7069C70.1301 58.6625 78.5325 54.9538 83.6922 61.2164C83.8343 61.394 83.8106 61.6605 83.6212 61.816C83.5029 61.8604 83.4082 61.8826 83.3135 61.8826Z" fill="black"/>
<path d="M42.0355 72.2548L67.0533 69.0791C67.0533 69.0791 68 61.3064 74.7456 60.8622C81.4911 60.3959 81.7988 65.6591 81.7988 65.6591C81.7988 65.6591 88.9468 67.0804 90.2959 81.0046C91.645 94.9288 92.3314 98.6819 85.5858 100.37C78.8403 102.08 73.8699 93.5075 73.8699 93.5075C73.8699 93.5075 67.219 99.4147 60.4497 92.1084L54.9349 92.8412C54.9349 92.8412 52.3787 100.525 42.2959 97.6825C42.2959 97.6825 39.5503 107.143 33.7515 107.432C27.9527 107.72 25.6568 105.3 23.5503 93.7073C21.4438 82.115 20.6627 77.2959 26.6509 73.0764C26.6509 73.0764 25.9645 67.1914 33.0178 66.3697C40.0237 65.5703 42.0355 72.2548 42.0355 72.2548Z" fill="white"/>
<path d="M32.9468 107.875C27.2426 107.875 25.0651 104.632 23.0769 93.7727C21.0178 82.4912 20.071 77.2724 26.1539 72.8753C26.1302 71.6983 26.3669 66.7016 32.9231 65.9465C39.29 65.2137 41.7752 70.3659 42.3432 71.7649L66.6509 68.6781C66.9349 67.1458 68.4734 60.8388 74.6982 60.4168C77.0414 60.2614 78.8876 60.75 80.2367 61.8381C81.7041 63.0373 82.0828 64.6363 82.2012 65.3025C83.6686 65.7689 89.5148 68.3672 90.7219 80.9367L90.8876 82.6467C92.1183 95.2384 92.497 99.0359 85.6805 100.768C85.0177 100.946 84.3787 101.012 83.7396 101.012C78.5562 101.012 74.7692 95.7492 73.7278 94.1502C72.7811 94.8387 70.4142 96.3044 67.3846 96.1711C64.8284 96.0601 62.4379 94.8387 60.2604 92.5513L55.2426 93.2175C54.6746 94.55 51.574 100.502 42.5799 98.192C41.9645 100.08 39.1716 107.586 33.7515 107.83C33.4675 107.852 33.2071 107.875 32.9468 107.875ZM34.1539 66.7238C33.7988 66.7238 33.4201 66.746 33.0414 66.7904C26.5326 67.5455 27.0533 72.8087 27.0769 73.0308L27.1006 73.2751L26.8876 73.4305C21.0178 77.5389 21.8935 82.2692 23.9527 93.6395C26.0829 105.276 28.355 107.275 33.6805 107.008C39.0769 106.742 41.7752 97.6591 41.7988 97.5702L41.9172 97.1483L42.3669 97.2815C51.9053 99.9687 54.3432 93.0177 54.4379 92.729L54.5325 92.4625L60.5681 91.663L60.7337 91.8407C62.7929 94.0614 65.0178 95.2384 67.3846 95.3495C70.8876 95.5049 73.4675 93.2397 73.4911 93.2175L73.9172 92.84L74.2012 93.3286C74.2485 93.4174 79.0769 101.568 85.3964 99.9687C91.5029 98.4363 91.1716 95.1052 89.9408 82.7355L89.7751 81.0255C88.4734 67.6343 81.7041 66.0798 81.6331 66.0576L81.3018 65.991L81.2781 65.68C81.2781 65.6578 81.1361 63.7702 79.574 62.4821C78.4142 61.5272 76.7811 61.1275 74.6982 61.2607C68.4024 61.6827 67.4319 69.0334 67.4319 69.1L67.3846 69.4331L41.6331 72.6977L41.5148 72.3423C41.5148 72.1203 39.8107 66.7238 34.1539 66.7238Z" fill="black"/>
<path d="M85.7987 77.5833C85.7514 77.6277 85.7277 77.6721 85.6804 77.7165C85.6331 77.7609 85.6094 77.8053 85.562 77.8276C85.5384 77.872 85.491 77.8942 85.4674 77.9164C85.4437 77.9386 85.3964 77.983 85.3727 78.0052C85.349 78.0274 85.3017 78.0718 85.278 78.094C85.2544 78.1162 85.207 78.1385 85.1833 78.1829C85.136 78.2051 85.1123 78.2273 85.065 78.2717C85.0177 78.2939 84.9467 78.3383 84.8993 78.3605C84.8757 78.3827 84.8283 78.3827 84.8047 78.4049C84.7573 78.4272 84.7336 78.4272 84.6863 78.4494C84.639 78.4716 84.6153 78.4716 84.568 78.4716C84.5206 78.4716 84.4733 78.4938 84.4496 78.4938C84.3549 78.516 84.2839 78.516 84.1893 78.516C84.1419 78.516 84.1183 78.516 84.0709 78.516C84.0236 78.516 83.9999 78.516 83.9526 78.516C83.9289 78.516 83.8816 78.516 83.8579 78.516C83.8342 78.516 83.7869 78.516 83.7632 78.516C83.6922 78.516 83.6449 78.516 83.5739 78.516C82.3905 78.4272 81.3964 77.5388 81.2307 76.4285C81.6567 77.2279 82.4851 77.7609 83.4319 77.8276C83.5029 77.8276 83.5739 77.8275 83.6212 77.8498C83.6449 77.8498 83.6922 77.8498 83.7159 77.8498C83.7396 77.8498 83.7869 77.8498 83.8342 77.8498C83.8816 77.8498 83.9053 77.8498 83.9526 77.8498C83.9999 77.8498 84.0473 77.8498 84.0709 77.8498C84.1183 77.8498 84.1656 77.8498 84.2129 77.8276C84.2603 77.8276 84.3076 77.8053 84.3313 77.8053C84.3786 77.8053 84.4023 77.7831 84.4496 77.7831C84.497 77.7831 84.5206 77.7609 84.5443 77.7609C84.6153 77.7387 84.6626 77.7165 84.71 77.6943C84.7573 77.6721 84.781 77.6499 84.8283 77.6055C84.8757 77.5833 84.8993 77.5611 84.9467 77.5166C84.994 77.4944 85.0413 77.45 85.0887 77.4278C85.136 77.4056 85.1834 77.3612 85.2307 77.339C85.278 77.2946 85.3254 77.2724 85.3727 77.2279C85.8224 76.8504 86.1538 76.3396 86.2721 75.7622C86.3668 76.4507 86.2011 77.0725 85.7987 77.5833Z" fill="#37383B"/>
<path d="M72.71 80.0262C71.3136 80.2038 70.0118 79.2711 69.7988 77.9609C70.2958 78.9158 71.4082 79.5154 72.5917 79.36C73.7751 79.2045 74.6745 78.3606 74.8875 77.2946C75.0769 78.6049 74.1065 79.8263 72.71 80.0262Z" fill="#37383B"/>
<path d="M80.5207 84.0902C80.4734 84.1346 80.426 84.1568 80.3787 84.2012C80.3314 84.2456 80.284 84.2678 80.2367 84.29C80.213 84.3122 80.1657 84.3122 80.142 84.3345C80.1183 84.3567 80.071 84.3567 80.0473 84.3789L79.645 84.5343C79.5976 84.5565 79.5266 84.5787 79.4793 84.6009C79.4319 84.6232 79.3846 84.6231 79.3373 84.6454C79.2899 84.6676 79.2426 84.6676 79.1716 84.6676C79.1242 84.6676 79.0532 84.6676 78.9822 84.6898C78.9112 84.6898 78.8639 84.6898 78.7929 84.6898C77.5384 84.6676 76.4497 83.7793 76.2603 82.58V82.5578C76.7574 83.5128 77.8698 84.1124 79.0532 83.9569C80.2367 83.8015 81.1361 82.9576 81.3491 81.9138V81.936C81.5148 82.7355 81.1834 83.5572 80.5207 84.0902Z" fill="#37383B"/>
<path d="M79.6923 72.1869C79.6686 72.2313 79.6449 72.2979 79.6212 72.3423C79.6212 72.3645 79.5976 72.3867 79.5976 72.4311C79.5739 72.4534 79.5739 72.4978 79.5502 72.52C79.5266 72.5422 79.5266 72.5866 79.5029 72.6088C79.4792 72.631 79.4556 72.6754 79.4556 72.7198C79.4319 72.7643 79.4082 72.7865 79.3846 72.8309C79.3609 72.8753 79.3372 72.9197 79.2899 72.9419C79.2662 72.9863 79.2189 73.0308 79.1952 73.053C79.1715 73.0974 79.1242 73.1196 79.1005 73.164C79.0769 73.2084 79.0295 73.2306 79.0059 73.2528C78.9822 73.275 78.9585 73.2972 78.9112 73.3195C78.8638 73.3639 78.8165 73.3861 78.7928 73.4083C78.7692 73.4305 78.7218 73.4527 78.6982 73.4749C78.6745 73.4971 78.6272 73.4971 78.6035 73.5193C78.5798 73.5415 78.5325 73.5415 78.5088 73.5637C78.4852 73.5859 78.4378 73.6082 78.4141 73.6082C78.3668 73.6304 78.3431 73.6526 78.2958 73.6748C78.2485 73.697 78.2011 73.7192 78.1538 73.7414C78.1065 73.7636 78.0354 73.7858 77.9881 73.7858C77.9171 73.808 77.8698 73.808 77.7988 73.8302C77.7278 73.8524 77.6804 73.8524 77.6094 73.8524C76.2366 74.0301 74.9349 73.1418 74.7218 71.8315C75.2189 72.7865 76.3313 73.3639 77.5147 73.2084C77.6567 73.1862 77.7751 73.164 77.9171 73.1196C77.9881 73.0974 78.0354 73.0752 78.1064 73.053C78.1775 73.0308 78.2248 73.0085 78.2958 72.9863C78.3431 72.9641 78.4141 72.9419 78.4615 72.9197C78.5088 72.8975 78.5562 72.8753 78.6035 72.8531C78.6508 72.8309 78.6982 72.8087 78.7455 72.7643C78.7928 72.7421 78.8402 72.6976 78.8875 72.6532C78.9112 72.631 78.9349 72.6088 78.9585 72.5866C78.9822 72.5644 79.0059 72.5422 79.0295 72.52C79.0532 72.4978 79.0769 72.4756 79.1005 72.4534C79.1242 72.4311 79.1479 72.4089 79.1715 72.3867C79.2189 72.3423 79.2662 72.2757 79.2899 72.2313C79.3372 72.1869 79.3609 72.1424 79.4082 72.0758C79.4319 72.0314 79.4792 71.9648 79.5029 71.9204C79.6449 71.6761 79.7396 71.4318 79.7869 71.1653C79.8343 71.5428 79.8106 71.876 79.6923 72.1869Z" fill="#37383B"/>
<path d="M63.0533 77.7166L60.284 77.3169C60.0237 77.2724 59.8107 77.4723 59.858 77.7166L60.071 79.2267C60.0947 79.471 60.3787 79.6042 60.5917 79.4932L63.1479 78.3828C63.4793 78.2496 63.4083 77.761 63.0533 77.7166Z" fill="black"/>
<path d="M50.9112 80.4703L48.9704 80.7146C48.639 80.759 48.3076 80.5369 48.2603 80.2038L48.1893 79.7597C48.142 79.4488 48.3787 79.1379 48.7337 79.0934L50.6745 78.8492C51.0059 78.8047 51.3373 79.0268 51.3846 79.3599L51.4556 79.8041C51.5029 80.115 51.2662 80.4259 50.9112 80.4703Z" fill="black"/>
<path d="M46.2485 95.1718C49.4511 95.1718 52.0474 92.7358 52.0474 89.7309C52.0474 86.726 49.4511 84.29 46.2485 84.29C43.0459 84.29 40.4497 86.726 40.4497 89.7309C40.4497 92.7358 43.0459 95.1718 46.2485 95.1718Z" fill="#37383B"/>
<path d="M68.1183 92.8177C71.3209 92.8177 73.9171 90.3818 73.9171 87.3769C73.9171 84.372 71.3209 81.936 68.1183 81.936C64.9157 81.936 62.3195 84.372 62.3195 87.3769C62.3195 90.3818 64.9157 92.8177 68.1183 92.8177Z" fill="#37383B"/>
<path d="M78.6745 83.2462C79.7202 83.2462 80.568 82.4508 80.568 81.4696C80.568 80.4884 79.7202 79.693 78.6745 79.693C77.6288 79.693 76.781 80.4884 76.781 81.4696C76.781 82.4508 77.6288 83.2462 78.6745 83.2462Z" fill="#37383B"/>
<path d="M83.6923 77.0725C84.738 77.0725 85.5858 76.2771 85.5858 75.2959C85.5858 74.3147 84.738 73.5193 83.6923 73.5193C82.6465 73.5193 81.7988 74.3147 81.7988 75.2959C81.7988 76.2771 82.6465 77.0725 83.6923 77.0725Z" fill="#37383B"/>
<path d="M77.1124 72.5422C78.1581 72.5422 79.0059 71.7468 79.0059 70.7656C79.0059 69.7844 78.1581 68.989 77.1124 68.989C76.0666 68.989 75.2189 69.7844 75.2189 70.7656C75.2189 71.7468 76.0666 72.5422 77.1124 72.5422Z" fill="#37383B"/>
<path d="M72.0946 78.6049C73.1404 78.6049 73.9881 77.8095 73.9881 76.8283C73.9881 75.8471 73.1404 75.0517 72.0946 75.0517C71.0489 75.0517 70.2011 75.8471 70.2011 76.8283C70.2011 77.8095 71.0489 78.6049 72.0946 78.6049Z" fill="#37383B"/>
<path d="M56.1184 85.245C57.1642 85.245 58.0119 84.4496 58.0119 83.4684C58.0119 82.4872 57.1642 81.6918 56.1184 81.6918C55.0727 81.6918 54.2249 82.4872 54.2249 83.4684C54.2249 84.4496 55.0727 85.245 56.1184 85.245Z" fill="#37383B"/>
<path d="M27.3372 83.002L26.9585 79.7153L31.4319 79.2489L32.9467 80.7146L31.8579 82.4468L27.3372 83.002Z" fill="#37383B"/>
<path d="M40.568 78.3161L40.9467 81.6029L36.497 82.047L34.9586 80.6035L36.0473 78.8713L40.568 78.3161Z" fill="#37383B"/>
<path d="M36.4497 86.8661L32.9467 87.2215L32.4734 83.0242L34.0118 81.6029L35.858 82.6023L36.4497 86.8661Z" fill="#37383B"/>
<path d="M31.4556 74.4521L34.9586 74.0745L35.4556 78.2718L33.8935 79.6931L32.0473 78.6937L31.4556 74.4521Z" fill="#37383B"/>
<path d="M28.7573 73.1196C28.9703 72.0536 29.491 71.1209 30.1774 70.2548C31.2425 68.9224 32.5916 68.7669 34.2721 68.8113C37.3727 68.9001 38.5798 70.699 39.6212 73.1862C39.7159 73.4305 40.1656 73.3195 40.0472 73.0752C39.5029 71.7649 38.9348 70.4103 37.775 69.4553C36.6863 68.5448 35.4082 68.3894 34.0117 68.3672C32.639 68.345 31.3135 68.4338 30.2958 69.3887C29.278 70.3214 28.4023 71.7205 28.3786 73.0752C28.4023 73.2751 28.71 73.3195 28.7573 73.1196Z" fill="#37383B"/>
<path d="M70.1775 68.4782C70.6272 66.435 71.4083 64.3475 73.8225 63.7479C76.3787 63.1261 78.0829 64.7695 78.9349 66.7904C79.0059 66.9458 79.3136 66.9458 79.29 66.746C79.0769 64.4808 76.4971 62.9484 74.2012 63.2594C71.361 63.6591 70.2722 66.0353 69.9409 68.4559C69.9409 68.567 70.1539 68.6114 70.1775 68.4782Z" fill="#37383B"/>
<path d="M45.7278 74.6075C49.3491 74.3632 52.9704 74.0301 56.568 73.6748C59.8106 73.3417 63.0296 72.8975 66.1301 71.9204C66.3905 71.8315 66.2722 71.4762 66.0118 71.5428C59.5266 73.5193 52.4497 73.5193 45.7278 74.3188C45.5384 74.341 45.5384 74.6297 45.7278 74.6075Z" fill="#37383B"/>
<path d="M85.1124 98.5029C91.29 97.7923 88.9704 88.6872 85.5858 81.8694C85.5858 81.8694 82.0592 89.9752 77.2781 92.1516C77.2544 92.1294 78.5799 99.258 85.1124 98.5029Z" fill="#37383B"/>
<path d="M80.0947 93.2397C82.2249 91.0856 84.5207 88.7982 86.1302 86.2665C86.2249 86.1333 86.0119 85.9556 85.8935 86.0889C83.787 88.3096 81.9645 90.7747 79.8817 93.0399C79.7633 93.1731 79.9527 93.373 80.0947 93.2397Z" fill="white"/>
<path d="M81.1597 94.5722C82.6982 92.9732 84.497 91.4631 85.8225 89.7087C85.9408 89.5754 85.7041 89.4422 85.5858 89.531C83.858 90.9079 82.4378 92.7733 80.9941 94.4167C80.8994 94.5277 81.0651 94.6832 81.1597 94.5722Z" fill="white"/>
<path d="M81.6568 96.1267C82.4852 95.4827 83.0296 94.6166 83.7396 93.8837C84.3787 93.2175 85.3017 92.7067 85.8698 91.9961C85.9408 91.9072 85.8225 91.7962 85.7278 91.8184C84.8757 92.0183 84.071 92.8622 83.5029 93.4618C82.7692 94.2612 82.2958 95.2384 81.5148 95.9934C81.3964 96.0823 81.5384 96.2155 81.6568 96.1267Z" fill="white"/>
<path d="M83.5266 96.1711C83.9763 95.6604 84.426 95.194 84.9231 94.7054C85.3491 94.3057 85.9645 93.8838 86.2249 93.373C86.2722 93.2842 86.2012 93.1731 86.0828 93.1953C85.4911 93.3952 85.0414 93.9948 84.6391 94.4167C84.1657 94.9275 83.7396 95.4605 83.3373 96.0157C83.2426 96.1489 83.4319 96.2822 83.5266 96.1711Z" fill="white"/>
<path d="M81.1834 90.5525C82.3905 92.418 83.8579 94.7276 85.7041 96.0822C85.7988 96.1488 85.9644 96.06 85.8934 95.949C85.2781 95.0829 84.4497 94.35 83.7633 93.5283C82.9349 92.529 82.1538 91.4852 81.4201 90.3971C81.3491 90.286 81.0887 90.4193 81.1834 90.5525Z" fill="white"/>
<path d="M82.6271 89.9752C83.2425 91.3076 84.2129 92.9288 85.6094 93.6394C85.6804 93.6839 85.7751 93.595 85.7277 93.5284C85.2544 92.9066 84.6626 92.3958 84.1656 91.774C83.6922 91.1522 83.2662 90.486 82.9348 89.7975C82.8401 89.6199 82.5561 89.7753 82.6271 89.9752Z" fill="white"/>
<path d="M33.0414 104.721C26.9349 105.854 26.1065 96.5264 27.0533 89.0424C27.0533 89.0424 33.1125 95.7047 38.3669 96.3709C38.3669 96.3709 39.503 103.522 33.0414 104.721Z" fill="#37383B"/>
<path d="M36.1894 97.9922C33.4675 96.4599 30.9113 94.6611 28.1657 93.151C28.0237 93.0621 27.8343 93.262 27.9764 93.373C30.3432 95.3051 33.2781 96.8152 36.0237 98.2365C36.213 98.3253 36.3551 98.1033 36.1894 97.9922Z" fill="white"/>
<path d="M35.5977 99.6355C33.6569 98.5029 31.6924 97.1705 29.5622 96.3488C29.3965 96.2821 29.3019 96.5264 29.4439 96.6153C31.3137 97.8589 33.4912 98.7694 35.4794 99.8354C35.5977 99.902 35.7161 99.7243 35.5977 99.6355Z" fill="white"/>
<path d="M35.6214 101.279C33.9409 100.435 32.3551 98.4807 30.2486 98.5473C30.1303 98.5473 30.0829 98.7028 30.1776 98.7694C31.0534 99.3246 32.1658 99.5689 33.0889 100.102C33.8936 100.568 34.6273 101.146 35.5267 101.479C35.6687 101.501 35.7397 101.323 35.6214 101.279Z" fill="white"/>
<path d="M33.8699 101.834C33.2782 101.412 32.6628 101.012 32.0238 100.657C31.5031 100.368 30.9587 100.035 30.367 99.9909C30.2486 99.9909 30.2013 100.124 30.2723 100.191C30.722 100.59 31.3847 100.79 31.9291 101.057C32.5445 101.368 33.1599 101.701 33.7516 102.056C33.8936 102.145 34.0119 101.945 33.8699 101.834Z" fill="white"/>
<path d="M33.8224 95.9712C33.207 98.2364 32.142 100.324 31.4319 102.545C31.3846 102.656 31.5739 102.722 31.6449 102.634C32.923 100.724 33.5621 98.2364 34.1065 96.0378C34.1538 95.8602 33.8698 95.7936 33.8224 95.9712Z" fill="white"/>
<path d="M32.2131 95.8602C32 97.437 31.3136 98.7028 30.8166 100.191C30.7929 100.257 30.8876 100.324 30.9586 100.257C32.0237 99.1026 32.4261 97.3481 32.5681 95.8602C32.5681 95.6604 32.2367 95.6604 32.2131 95.8602Z" fill="white"/>
<path d="M47.4792 55.5991C47.4792 55.5991 29.42 48.426 20.5443 54.6663C11.6685 60.9067 18.7691 72.3214 0.757294 87.6003C0.757294 87.6003 10.3904 92.7524 26.0354 88.111C41.0177 83.6695 48.2839 79.4723 54.9112 82.6924L51.7396 79.3168L57.3017 80.5827L52.1893 77.2071L57.9171 77.629C57.9171 77.629 52.497 72.5657 44.6626 75.1196C44.6626 75.1196 32.781 78.5173 19.5265 63.7271" fill="#FFB96C"/>
<path d="M13.2781 90.4638C5.39645 90.4638 0.828402 88.0876 0.544379 87.9321L0 87.6656L0.473373 87.2659C10.8639 78.4717 12.8047 70.9877 14.3905 64.9916C15.503 60.7056 16.4734 57.0191 20.3077 54.332C29.2781 48.025 46.9349 54.9316 47.6923 55.2203C47.929 55.3091 48.0237 55.5534 47.929 55.7755C47.8343 55.9976 47.574 56.0864 47.3373 55.9976C47.1479 55.9309 29.3964 49.0021 20.8521 54.9982C17.2781 57.5077 16.4024 60.9054 15.2663 65.1915C13.6805 71.2098 11.716 78.6716 1.56213 87.4658C3.83432 88.4429 12.7574 91.5964 25.9172 87.6879C29.5858 86.5997 32.8047 85.5337 35.645 84.5788C43.5266 81.9361 48.6627 80.2261 53.3254 81.603L50.5089 78.5827L55.1479 79.6265L50.6272 76.6507L56.5207 77.0726C54.6035 75.8068 50.2959 73.697 44.8521 75.4737C44.7101 75.5181 41.7041 76.362 36.9941 75.3404C32.7101 74.4077 26.1302 71.6984 19.1953 63.9479C19.0296 63.7702 19.0533 63.5037 19.2426 63.3483C19.432 63.1928 19.716 63.215 19.8817 63.3927C32.8047 77.8055 44.426 74.6742 44.5444 74.652C52.5207 72.0537 58.1775 77.2281 58.2485 77.2725L59.1243 78.0719L53.8225 77.6944L59.5503 81.4697L53.0651 80.004L56.8757 84.0902L54.7456 83.0465C49.9172 80.6924 44.6627 82.4468 35.9527 85.356C33.1124 86.311 29.8935 87.3992 26.2012 88.4873C21.2308 89.9752 16.8994 90.4638 13.2781 90.4638Z" fill="black"/>
<path d="M33.5859 28.66C33.5859 28.66 29.1835 9.89452 50.3906 0.833801C50.3906 0.833801 64.8758 24.7958 63.8344 31.3027C62.793 37.8095 65.9646 39.4751 65.9646 39.4751C65.9646 39.4751 68.0711 38.4758 69.1362 40.4522C69.1362 40.4522 70.6273 37.7651 73.3492 36.9212C75.7634 40.0525 76.4261 49.5574 73.0888 52.5998C69.0415 56.2863 46.509 71.2098 32.1894 60.7056C20.2841 51.978 23.7397 45.0492 23.7397 45.0492C23.7397 45.0492 26.438 44.4718 30.6747 47.5809C30.6273 47.5809 37.2309 40.6521 33.5859 28.66Z" fill="#FFB96C"/>
<path d="M44.1657 64.7918C39.432 64.7918 35.29 63.5259 31.8817 61.0387C19.8344 52.2 23.148 45.1602 23.29 44.8715L23.3847 44.6938L23.5977 44.6494C23.716 44.6272 26.4143 44.0942 30.5563 47.0034C31.716 45.5599 36.2604 39.0309 33.1598 28.7932V28.771C33.1125 28.5711 32.0474 23.9075 33.6095 18.0669C35.0533 12.6704 39.1006 5.23088 50.2012 0.456235L50.5799 0.300781L50.7929 0.633896C51.3847 1.61103 65.3491 24.818 64.2841 31.3693C63.4557 36.5659 65.4201 38.5423 66.0119 39.0087C66.8166 38.72 68.1657 38.6312 69.1125 39.6749C69.7515 38.7866 71.1243 37.1877 73.1835 36.5214L73.4911 36.4326L73.6805 36.6769C76.1894 39.9414 76.8994 49.6906 73.3491 52.8885C71.3136 54.7317 64.5681 59.4619 56.5918 62.3489C52.1421 63.9923 47.9764 64.7918 44.1657 64.7918ZM24.0237 45.4489C23.5977 46.6481 22.1302 52.8218 32.4261 60.3724C39.858 65.8355 49.5148 64.0367 56.2841 61.5717C64.1184 58.7291 70.7456 54.0877 72.7338 52.2889C75.858 49.4685 75.2663 40.6743 73.1361 37.432C70.8403 38.3203 69.5148 40.6299 69.5148 40.6521L69.1125 41.3849L68.7101 40.6521C67.8817 39.1197 66.3196 39.786 66.1539 39.8526L65.9409 39.9414L65.7278 39.8304C65.5858 39.7638 62.3196 37.9205 63.3846 31.2138C64.3314 25.351 51.9527 4.29816 50.2012 1.36675C39.716 5.98594 35.8817 13.048 34.4853 18.2001C32.9941 23.7298 33.9645 28.2824 34.0355 28.5489C37.6805 40.6076 31.0296 47.7807 30.9586 47.8473L30.6746 48.136L30.3432 47.8917C27.0533 45.4933 24.7338 45.4045 24.0237 45.4489Z" fill="black"/>
<path d="M32.2604 34.7238C32.2604 34.7238 24.2604 41.6082 33.6332 46.8714C37.3965 48.9811 47.1243 44.6284 38.5799 35.4345C35.5503 32.1921 32.2604 34.7238 32.2604 34.7238Z" fill="white"/>
<path d="M35.8817 47.8251C34.9823 47.8251 34.1065 47.6474 33.3965 47.2477C30.4852 45.6265 28.8994 43.65 28.6391 41.4071C28.2367 37.654 31.787 34.5449 31.929 34.4339L31.9527 34.4117C32 34.3895 35.645 31.6357 38.8876 35.1445C44.1893 40.8519 42.2012 44.3385 41.1124 45.5821C39.8817 47.0034 37.7752 47.8251 35.8817 47.8251ZM32.5444 35.0557C32.355 35.2334 29.1834 38.0759 29.5385 41.3182C29.7515 43.2725 31.1953 45.0269 33.8462 46.5148C35.4793 47.4253 38.6982 46.9812 40.426 45.0491C42.4379 42.7839 41.6331 39.3862 38.2249 35.7219C35.5976 32.8571 32.7811 34.878 32.5444 35.0557Z" fill="black"/>
<path d="M38.9001 40.442C39.32 40.3054 39.3792 39.4337 39.0323 38.4951C38.6855 37.5565 38.0639 36.9063 37.644 37.0429C37.224 37.1795 37.1648 38.0512 37.5117 38.9898C37.8586 39.9284 38.4802 40.5786 38.9001 40.442Z" fill="black"/>
<path d="M41.7278 36.1225C41.7278 36.1225 35.3609 41.1192 27.7159 30.082C27.7159 30.082 30.8639 26.3955 36.7337 30.0598" fill="#FFB96C"/>
<path d="M41.7278 36.1217C40.6391 37.0322 39.1479 37.4986 37.6331 37.4986C36.1183 37.4986 34.6509 37.01 33.3728 36.2772C32.0947 35.5665 30.9822 34.6116 29.9882 33.5901C29.0177 32.5463 28.142 31.4359 27.3846 30.2811L27.2189 30.0368L27.4083 29.837C27.7396 29.5039 28.071 29.2596 28.4497 29.0153C28.8284 28.7932 29.2071 28.6156 29.6331 28.4823C30.4615 28.1936 31.3373 28.127 32.1893 28.1936C33.0414 28.2602 33.8698 28.5045 34.6272 28.8376C35.3846 29.1707 36.0947 29.5927 36.7574 30.059C36.0473 29.6815 35.2899 29.3484 34.5325 29.1041C33.7751 28.8598 32.9704 28.7044 32.1893 28.6822C31.4083 28.66 30.6272 28.7932 29.8935 29.0819C29.5385 29.2152 29.2071 29.3928 28.8757 29.6149C28.7101 29.7259 28.568 29.837 28.426 29.948C28.284 30.059 28.142 30.1923 28.0473 30.3033L28.071 29.8592C28.8757 30.9696 29.7278 32.0355 30.6746 33.0127C30.9112 33.2569 31.1479 33.5012 31.4083 33.7455C31.645 33.9898 31.9053 34.2119 32.1657 34.434C32.426 34.6338 32.6864 34.8781 32.9704 35.0558L33.3965 35.3445L33.8225 35.611C34.4142 35.9663 35.0296 36.2772 35.6686 36.5215C36.3077 36.7657 36.9941 36.899 37.6805 36.9656C39.0533 37.0989 40.497 36.8324 41.7278 36.1217Z" fill="black"/>
<path d="M42.8166 47.5599C42.8166 47.5599 36.3314 44.6063 31.8344 48.1373L42.8166 47.5599Z" fill="#FFB96C"/>
<path d="M42.8166 47.5587C41.8699 47.3366 40.9231 47.1589 40 47.0257C39.077 46.8924 38.1302 46.8258 37.2071 46.8258C36.2841 46.8258 35.361 46.9369 34.4616 47.1367C33.5622 47.3366 32.7101 47.6919 31.8344 48.1361C32.4497 47.4254 33.3018 46.8702 34.2486 46.5149C35.1716 46.1374 36.1894 45.9819 37.2071 45.9819C38.2012 45.9819 39.219 46.1152 40.1657 46.3817C41.0888 46.6482 42.0119 47.0257 42.8166 47.5587Z" fill="black"/>
<path d="M46.0829 34.0133C46.0829 34.0133 48.3077 22.1544 51.929 21.7325C55.5503 21.3105 70.6036 29.4607 62.6273 34.835" fill="#FFB96C"/>
<path d="M46.0829 34.012C46.2485 32.5685 46.5326 31.1472 46.8876 29.7259C47.2426 28.3046 47.645 26.9055 48.213 25.5287C48.4971 24.8402 48.8284 24.174 49.2071 23.5078C49.6095 22.8638 50.0592 22.2197 50.7929 21.709C50.9823 21.5979 51.1716 21.4869 51.4083 21.398C51.6213 21.3314 51.8817 21.287 52.0947 21.2648C52.5444 21.2426 52.9468 21.3092 53.3491 21.398C54.1539 21.5535 54.8876 21.7978 55.6213 22.1087C57.0651 22.6861 58.4616 23.3967 59.7397 24.2406C61.0178 25.0845 62.2485 26.0394 63.2663 27.172C63.7633 27.7494 64.2367 28.349 64.5681 29.0375C64.8994 29.7259 65.1361 30.4588 65.1124 31.236C65.0888 31.9911 64.8047 32.7462 64.3314 33.3458C63.858 33.9454 63.2426 34.4117 62.6036 34.8115C63.1953 34.3451 63.7397 33.8343 64.1184 33.2125C64.4971 32.6129 64.7101 31.9245 64.6627 31.236C64.6391 30.5476 64.3787 29.8814 64.0237 29.2818C63.6687 28.6822 63.219 28.1048 62.6982 27.594C61.6805 26.5502 60.4734 25.6619 59.219 24.8847C57.9408 24.1074 56.6154 23.4189 55.219 22.8638C54.5326 22.5973 53.8225 22.353 53.1124 22.1975C52.7574 22.1309 52.4024 22.0643 52.071 22.0865C51.7633 22.0865 51.503 22.1753 51.2189 22.353C50.6746 22.7083 50.2249 23.2635 49.8462 23.8631C49.4675 24.4627 49.1361 25.1067 48.8284 25.7507C48.5207 26.3948 48.2367 27.061 48 27.7494C47.7397 28.4157 47.503 29.1041 47.2663 29.7925C46.8876 31.2138 46.4852 32.5907 46.0829 34.012Z" fill="black"/>
<path d="M53.6095 43.5403C50.6982 42.2522 48.9704 39.3652 49.1361 36.345C49.3254 33.2359 50.2012 28.217 53.8935 26.3738C59.3136 23.6866 73.3491 39.0988 62.0591 43.296C58.3432 44.6729 55.5976 44.4064 53.6095 43.5403Z" fill="white"/>
<path d="M57.2071 44.6939C55.8343 44.6939 54.5799 44.4496 53.4201 43.9166C50.4142 42.5842 48.4971 39.5417 48.6864 36.3216C48.8994 32.6351 49.9408 27.8605 53.7042 25.9951C55.1953 25.24 57.3255 25.6619 59.645 27.1499C63.503 29.6149 67.2189 34.5894 66.7456 38.6756C66.4852 40.963 64.9231 42.6952 62.2249 43.6945C60.426 44.3608 58.7456 44.6939 57.2071 44.6939ZM53.7988 43.1616C56.0474 44.1609 58.7692 44.0721 61.8935 42.9173C64.284 42.029 65.6095 40.5633 65.8462 38.5868C66.2722 34.8781 62.6982 30.1257 59.1243 27.8605C57.1124 26.5725 55.2663 26.1727 54.1065 26.7501C50.5562 28.5045 49.7515 33.5457 49.5858 36.3882C49.4201 39.253 51.1006 41.9623 53.7988 43.1616Z" fill="black"/>
<path d="M27.9292 50.1357C27.9292 50.1357 38.9588 73.8312 69.1363 46.2493L27.9292 50.1357Z" fill="#FFB96C"/>
<path d="M27.929 50.1347C28.9231 51.8446 30.1776 53.377 31.645 54.7094C33.1125 56.0419 34.793 57.1745 36.6391 57.9295C38.4853 58.6846 40.4734 59.1287 42.4853 59.1732C44.4971 59.2398 46.5089 58.9511 48.4734 58.4625C52.4024 57.4632 56.0237 55.5755 59.432 53.4436L60.7101 52.6219C61.1362 52.3554 61.5385 52.0445 61.9409 51.7558C62.7693 51.1784 63.5977 50.6232 64.3788 49.9792L65.5859 49.0687L66.1776 48.6023C66.3669 48.4469 66.5563 48.2914 66.7693 48.136C67.5504 47.4919 68.3314 46.8701 69.1125 46.2261C66.2486 49.0243 63.1953 51.667 59.8107 53.9544L59.1717 54.3763L58.864 54.5984L58.5326 54.7983L57.2072 55.5977L56.5444 55.9975L55.858 56.3528L54.4853 57.0634C52.6154 57.9295 50.6983 58.7512 48.6628 59.2398C46.6273 59.7506 44.5208 60.0393 42.4143 59.9504C40.3077 59.8616 38.2012 59.373 36.3077 58.5069C35.361 58.085 34.4616 57.552 33.6095 56.9746C32.7811 56.375 32.0001 55.7088 31.29 54.9981C30.5799 54.2653 29.9409 53.5102 29.3728 52.6885C28.8285 51.8668 28.3077 51.023 27.929 50.1347Z" fill="black"/>
<path d="M34.3906 50.1136C34.3906 50.1136 30.5089 68.9012 37.3018 71.5661C37.3018 71.5661 44.3788 70.7 63.1243 46.1162" fill="#FFB96C"/>
<path d="M34.3905 50.1125C34.1065 51.9779 33.8698 53.8656 33.7515 55.7532C33.6095 57.6409 33.5385 59.5285 33.6095 61.4162C33.6805 63.3038 33.8462 65.1693 34.3669 66.9681C34.6272 67.8564 34.9586 68.7225 35.4556 69.4776C35.9527 70.2326 36.6391 70.8544 37.4675 71.1876L37.2544 71.1654C37.2781 71.1654 37.3965 71.1209 37.4675 71.0987C37.5385 71.0765 37.6331 71.0321 37.7278 71.0099C37.8935 70.9655 38.0592 70.8766 38.2249 70.7878C38.5562 70.6546 38.8876 70.4547 39.2189 70.277C39.5503 70.0772 39.858 69.8773 40.1894 69.6774C40.497 69.4776 40.8047 69.2555 41.1361 69.0334C41.4438 68.8335 41.7515 68.5893 42.0592 68.3672L42.9586 67.6788C43.5503 67.1902 44.142 66.7016 44.7101 66.213L46.4142 64.6807L48.0473 63.104C48.6154 62.5932 49.1124 62.038 49.6568 61.4828C50.1775 60.9276 50.7219 60.4169 51.2426 59.8395C53.3255 57.6187 55.3373 55.3535 57.3018 53.0661L58.7693 51.3339C59.2663 50.7565 59.7633 50.1791 60.2367 49.6017C61.2071 48.4247 62.1539 47.2699 63.1479 46.0929C61.3728 48.5358 59.5977 50.9786 57.7042 53.3548C55.8343 55.731 53.8698 58.0628 51.8343 60.328C49.7752 62.571 47.6686 64.7918 45.3255 66.8127C44.7574 67.3234 44.142 67.812 43.5503 68.3228C43.2426 68.5671 42.9349 68.7891 42.6272 69.0334C42.3195 69.2777 42.0118 69.4998 41.6805 69.7219C41.3491 69.9439 41.0414 70.166 40.7101 70.3881C40.3787 70.588 40.0473 70.81 39.6923 71.0099C39.3373 71.1876 39.0059 71.3874 38.6036 71.5429C38.4142 71.6317 38.2249 71.7205 38.0355 71.7872C37.9408 71.8316 37.8462 71.8538 37.7278 71.8982C37.6095 71.9204 37.5385 71.9648 37.3728 71.987L37.2544 72.0092L37.1361 71.9648C36.0947 71.5429 35.2899 70.7656 34.7456 69.8995C34.2012 69.0334 33.8462 68.1007 33.6095 67.168C33.1361 65.2803 32.9941 63.3483 32.9941 61.4384C33.0177 59.5285 33.1361 57.6187 33.3964 55.7532C33.6331 53.8434 33.9408 51.9557 34.3905 50.1125Z" fill="black"/>
<path d="M42.0828 62.5266C41.9645 61.8381 41.9645 61.1497 42.0355 60.4613C42.1065 59.7728 42.2722 59.0844 42.5799 58.4182C42.7455 58.085 42.9349 57.7741 43.2189 57.5076C43.5029 57.2412 43.8343 56.9969 44.2367 56.908C44.639 56.797 45.0414 56.8414 45.3964 56.9525C45.7751 57.0635 46.0828 57.2412 46.3669 57.441C45.6805 57.2412 44.9467 57.1079 44.355 57.33C44.071 57.441 43.8106 57.6187 43.6213 57.863C43.4083 58.085 43.2426 58.3737 43.1242 58.6624C42.8402 59.2398 42.6745 59.8839 42.5089 60.5279C42.3432 61.1941 42.2248 61.8381 42.0828 62.5266Z" fill="black"/>
<path d="M45.42 59.3953L43.9052 61.1719L44.639 58.9956C44.71 58.7735 44.9703 58.6403 45.207 58.7069C45.4437 58.7735 45.5857 59.0178 45.5147 59.2399C45.4674 59.3065 45.4437 59.3509 45.42 59.3953Z" fill="black"/>
<path d="M70.3196 59.1966C54.7456 60.3736 61.0178 75.1639 61.0178 75.1639L63.1006 68.546L65.3965 74.8974L67.2663 69.0124L69.7515 75.275L71.2663 61.6395" fill="#FFB96C"/>
<path d="M69.9882 77.0948L67.29 70.3215L65.3965 76.2731L63.1243 69.9439L61.0651 76.4508L60.5917 75.3182C60.4734 75.0295 57.6095 68.1229 60.8284 63.2594C62.5799 60.6167 65.7515 59.1066 70.2722 58.7735C70.5089 58.7513 70.7456 58.9289 70.7693 59.151C70.7929 59.3731 70.6036 59.5952 70.3669 59.6174C66.1539 59.9283 63.1953 61.3052 61.6095 63.7036C59.4083 67.0347 60.3314 71.5651 60.9941 73.7414L63.077 67.1458L65.3728 73.4972L67.219 67.6788L69.5148 73.4527L70.8403 61.5939C70.864 61.3718 71.1006 61.1941 71.3373 61.2163C71.574 61.2385 71.7634 61.4384 71.7397 61.6827L69.9882 77.0948Z" fill="black"/>
<path d="M61.9227 34.5454C62.4203 34.2747 62.239 33.1091 61.5177 31.942C60.7965 30.7749 59.8084 30.0481 59.3108 30.3188C58.8133 30.5895 58.9946 31.7551 59.7159 32.9223C60.4371 34.0894 61.4252 34.8161 61.9227 34.5454Z" fill="black"/>
<g opacity="0.1">
<path opacity="0.1" d="M50.7219 77.2503C51.0533 77.6278 51.574 77.9387 51.9763 78.2274C52.3314 78.4939 52.6864 78.8714 53.1361 79.0269C53.3254 79.0935 53.5148 78.8492 53.3964 78.6938C53.1361 78.294 52.6391 78.0276 52.2604 77.7611C51.8343 77.4724 51.4083 77.117 50.9112 76.9616C50.7219 76.895 50.6272 77.117 50.7219 77.2503Z" fill="black"/>
</g>
<g opacity="0.1">
<path opacity="0.1" d="M50.3433 79.36C50.3433 79.5599 50.4379 79.6265 50.6036 79.7598C50.7693 79.893 50.9113 80.0485 51.077 80.1817C51.361 80.426 51.6924 80.8035 52.0711 80.9368C52.2367 81.0034 52.4261 80.8035 52.3788 80.6481C52.2367 80.2927 51.8107 79.9818 51.503 79.7153C51.2427 79.5155 50.864 79.1157 50.5089 79.1824C50.3906 79.2268 50.3433 79.2934 50.3433 79.36Z" fill="black"/>
</g>
<g opacity="0.1">
<g opacity="0.1">
<path opacity="0.1" d="M18.2722 64.4809C19.3609 67.0792 22.0355 69.3221 24.2603 71.0543C26.8876 73.0974 29.7751 74.9407 32.9231 76.2287C35.9527 77.4501 39.1479 78.0942 42.4379 77.6944C44.3077 77.4724 46.0355 76.8061 47.8106 76.2287C48.7337 75.9178 49.6331 75.5625 50.6272 75.6291C51.9053 75.7179 52.71 76.0289 53.7278 76.7173C54.0592 76.9394 54.4142 76.4064 54.0592 76.2065C51.5266 74.8518 48.6864 74.7852 45.9882 75.6291C42.3195 76.7617 38.6982 76.6507 35.0532 75.407C31.858 74.3189 28.8284 72.5867 26.1065 70.7212C24.71 69.7663 23.3846 68.7003 22.1538 67.5455C20.9941 66.4796 20.0947 65.2137 18.9586 64.1256C18.6982 63.8369 18.1302 64.1033 18.2722 64.4809Z" fill="black"/>
</g>
<g opacity="0.1">
<path opacity="0.1" d="M61.1835 72.8087C61.3255 70.0772 61.5622 67.5899 62.8639 65.1027C63.4793 63.9257 64.142 63.0596 65.3965 62.3934C66.4615 61.8382 67.574 61.283 68.7337 60.9721C69.7278 60.7056 70.7692 60.7944 71.7633 60.5279C72.9704 60.1948 74.0118 59.9283 75.2899 59.8839C77.8935 59.7951 80.5207 60.4391 82.0592 62.5266C82.4615 63.0818 83.3846 62.5932 83.0296 61.9936C81.7988 59.8617 79.3373 58.929 76.8521 58.7291C75.4083 58.6181 73.8225 58.5958 72.426 59.0178C71.0059 59.4397 69.5621 59.4619 68.142 59.8839C65.5385 60.6612 63.1243 61.9492 61.8935 64.281C61.2071 65.5913 60.5681 66.9237 60.355 68.3672C60.1184 69.9662 60.4261 71.3208 60.7574 72.8532C60.8048 73.0974 61.1835 73.0308 61.1835 72.8087Z" fill="black"/>
</g>
<g opacity="0.1">
<path opacity="0.1" d="M66.6982 40.4744C66.9113 40.6299 67.1006 40.7631 67.2426 40.9852C67.3846 41.2295 67.4556 41.496 67.5266 41.7625C67.645 42.251 68.3551 42.0956 68.4024 41.6514C68.4497 41.1406 68.1894 40.6521 67.8343 40.2745C67.5267 39.9636 66.8639 39.5861 66.6272 40.1635C66.5799 40.2745 66.6272 40.4078 66.6982 40.4744Z" fill="black"/>
</g>
<g opacity="0.1">
<path opacity="0.1" d="M70.7692 41.3406C71.1242 40.8964 71.3845 40.4523 71.6922 39.9859C71.9999 39.5417 72.284 39.0754 72.8283 38.8755C73.207 38.7423 73.065 38.1649 72.6627 38.2981C72.1656 38.4536 71.8106 38.8089 71.5266 39.1864C71.0769 39.7638 70.6271 40.319 70.2721 40.9408C70.0591 41.2517 70.5088 41.6293 70.7692 41.3406Z" fill="black"/>
</g>
<g opacity="0.1">
<path opacity="0.1" d="M49.1123 30.0146C49.8224 27.9049 51.1715 24.8624 54.1064 25.0623C55.4319 25.1511 55.4082 23.0192 54.1064 23.1525C51.0532 23.4412 48.2839 27.1498 48.1656 29.9036C48.1419 30.4143 48.9703 30.481 49.1123 30.0146Z" fill="black"/>
</g>
<g opacity="0.1">
<path opacity="0.1" d="M56.1657 25.2178C56.5207 25.2178 56.8521 24.9291 56.8284 24.5959C56.8048 24.2628 56.5444 23.9741 56.1657 23.9741C55.8107 23.9741 55.4793 24.2628 55.503 24.5959C55.503 24.9291 55.787 25.2178 56.1657 25.2178Z" fill="black"/>
</g>
<g opacity="0.1">
<path opacity="0.1" d="M30.9349 30.6364C31.8817 31.9466 33.0178 33.2125 34.4852 34.0341C35.9527 34.8558 38.1302 35.6997 39.858 35.6109C40.4024 35.5887 40.5444 34.8558 39.9763 34.7226C38.4142 34.3228 36.8047 34.0786 35.2663 33.5234C33.4911 32.9015 32.355 31.769 31.0533 30.5475C31.0059 30.4587 30.8876 30.5475 30.9349 30.6364Z" fill="black"/>
</g>
<g opacity="0.1">
<path opacity="0.1" d="M35.2426 28.2157C35.2663 25.8173 34.7929 23.6187 35.361 21.2203C35.858 19.0884 36.5917 16.9786 37.5621 15.0022C38.5799 12.9368 39.929 11.2491 41.4911 9.56128C42.2249 8.78402 42.9349 7.98454 43.7397 7.2739C44.7337 6.38559 45.8935 5.87482 46.9823 5.14196C47.574 4.74223 47.2426 3.7873 46.4615 3.98717C44.0947 4.60898 42.4852 6.60767 40.9941 8.31766C39.2663 10.2941 37.6331 12.0707 36.4971 14.4248C34.2959 18.8885 33.2071 23.4633 34.2722 28.3267C34.3905 28.8375 35.2189 28.7043 35.2426 28.2157Z" fill="black"/>
</g>
<g opacity="0.1">
<path opacity="0.1" d="M48.497 4.52019C49.0177 4.52019 49.5148 4.09825 49.4911 3.58747C49.4674 3.0767 49.0651 2.65475 48.497 2.65475C47.9763 2.65475 47.4793 3.0767 47.5029 3.58747C47.5266 4.09825 47.929 4.52019 48.497 4.52019Z" fill="black"/>
</g>
<g opacity="0.1">
<path opacity="0.1" d="M34.9349 50.5789C34.4616 52.9551 34.1775 55.3979 33.9645 57.8186C33.7752 59.8173 33.3018 62.2157 33.7752 64.1922C34.1302 65.6801 34.8166 67.7232 35.8817 68.9002C36.7338 69.8329 38.4616 70.6324 39.4557 69.4998C39.7397 69.1667 39.4793 68.6781 39.006 68.7891C37.6095 69.1001 36.8284 68.9224 36.0474 67.6788C35.645 67.0347 35.4083 66.2131 35.1243 65.5024C34.5326 63.9923 34.4379 62.7487 34.5089 61.1497C34.6746 57.6409 35.0296 54.1321 35.1243 50.6233C35.148 50.49 34.9586 50.4678 34.9349 50.5789Z" fill="black"/>
</g>
<g opacity="0.1">
<path opacity="0.1" d="M43.0532 62.0158C43.1952 61.5051 43.1952 60.9943 43.3136 60.4835C43.4556 59.9061 43.6923 59.3953 44.0236 58.8845C44.213 58.5958 43.7396 58.3294 43.5503 58.6181C42.9586 59.5286 42.3432 60.9499 42.8166 62.0158C42.8639 62.1269 43.0296 62.1491 43.0532 62.0158Z" fill="black"/>
</g>
<g opacity="0.1">
<path opacity="0.1" d="M44.0237 58.3746C44.142 58.3746 44.213 58.3746 44.2604 58.2855C44.284 58.2633 44.284 58.2187 44.2604 58.1742C44.1893 58.0851 44.1183 58.0851 44.0237 58.0851C43.8343 58.0851 43.8343 58.3746 44.0237 58.3746Z" fill="black"/>
</g>
<g opacity="0.1">
<path opacity="0.1" d="M67.716 45.8264C68.4024 45.5599 69.1598 45.1602 69.9172 45.4489C70.3669 45.6265 70.4852 45.9818 70.6745 46.3594C70.9822 47.0034 71.0532 47.6474 70.4615 48.1804C70.4615 48.1804 70.4615 48.2026 70.4615 48.1804C71.2426 47.5586 71.2426 45.9818 70.5325 45.2934C69.7751 44.605 68.1183 44.8715 67.5266 45.6043C67.4556 45.6932 67.5976 45.8708 67.716 45.8264Z" fill="black"/>
</g>
<g opacity="0.1">
<path opacity="0.1" d="M27.1953 51.6893C27.0059 50.8898 26.7692 49.5129 28 49.3575C28.8994 49.2464 29.4674 49.8904 30.0592 50.4012C30.1538 50.4678 30.3195 50.379 30.2248 50.268C29.7041 49.5351 28.71 48.8245 27.716 49.1576C26.5562 49.5573 26.7455 50.8454 27.0059 51.7115C27.0532 51.8447 27.2189 51.8003 27.1953 51.6893Z" fill="black"/>
</g>
<g opacity="0.1">
<path opacity="0.1" d="M97.6568 93.5951C97.4201 92.6845 97.0651 91.2855 96.0473 90.8413C95.858 90.7525 95.5503 90.9523 95.7159 91.1522C96 91.5075 96.355 91.7962 96.568 92.196C96.852 92.6623 97.0414 93.1731 97.2544 93.6839C97.3491 93.9282 97.7278 93.8393 97.6568 93.5951Z" fill="black"/>
</g>
<g opacity="0.1">
<path opacity="0.1" d="M95.2899 90.6425C95.5502 90.6425 95.5502 90.2639 95.2899 90.2639C95.0295 90.2639 95.0295 90.6425 95.2899 90.6425Z" fill="black"/>
</g>
<g opacity="0.1">
<path opacity="0.1" d="M94.1065 94.9498C94.2249 94.5722 93.9882 94.1725 93.8225 93.8172C93.5858 93.3064 93.3018 92.84 93.0888 92.3071C92.9941 92.0628 92.568 92.1516 92.6627 92.4181C92.7811 92.8623 93.0414 93.262 93.2544 93.6617C93.4911 94.0837 93.5621 94.5944 93.8462 94.9942C93.8935 95.083 94.0829 95.083 94.1065 94.9498Z" fill="black"/>
</g>
<g opacity="0.1">
<path opacity="0.1" d="M92.2367 91.9073C92.7337 91.9073 92.7337 91.1967 92.2367 91.1967C91.7633 91.1967 91.7633 91.9073 92.2367 91.9073Z" fill="black"/>
</g>
<g opacity="0.1">
<path opacity="0.1" d="M15.4556 95.2385C15.5503 94.7055 15.929 94.2836 16.3077 93.8838C16.6627 93.4841 17.0888 93.0177 17.6805 92.9733C18.1539 92.9289 18.0355 92.2405 17.5858 92.3737C16.8757 92.5736 16.4024 93.0399 15.9527 93.5507C15.5266 94.0393 15.1716 94.5501 15.1006 95.1941C15.0769 95.3717 15.4083 95.4162 15.4556 95.2385Z" fill="black"/>
</g>
<g opacity="0.1">
<path opacity="0.1" d="M18.8402 92.7733C19.4083 92.7733 19.4083 91.9294 18.8402 91.9294C18.2485 91.9517 18.2485 92.7733 18.8402 92.7733Z" fill="black"/>
</g>
<g opacity="0.1">
<path opacity="0.1" d="M11.4083 94.9275C11.858 93.8394 12.213 92.9066 13.2071 92.1516C13.3965 91.9961 13.1361 91.6852 12.9231 91.8185C11.8817 92.5069 11.4319 93.7727 11.2663 94.9053C11.2663 94.9942 11.3846 94.9942 11.4083 94.9275Z" fill="black"/>
</g>
<g opacity="0.1">
<path opacity="0.1" d="M13.9882 91.6852C14.4143 91.6852 14.4143 91.0412 13.9882 91.0412C13.5385 91.0634 13.5385 91.6852 13.9882 91.6852Z" fill="black"/>
</g>
<g opacity="0.1">
<path opacity="0.1" d="M7.71596 93.8615C7.99998 92.8622 8.94673 92.307 9.4201 91.4187C9.51478 91.2632 9.30176 91.1078 9.15975 91.2188C8.75738 91.5742 8.44969 92.0627 8.142 92.4847C7.85797 92.9066 7.62129 93.3064 7.52661 93.7949C7.52661 93.9282 7.69229 93.9726 7.71596 93.8615Z" fill="black"/>
</g>
<g opacity="0.1">
<path opacity="0.1" d="M9.79881 91.0412C10.2249 91.0412 10.2249 90.4194 9.79881 90.4194C9.37277 90.4194 9.37277 91.0412 9.79881 91.0412Z" fill="black"/>
</g>
<g opacity="0.1">
<path opacity="0.1" d="M63.4319 67.9675C63.6686 68.8114 64.0473 69.6331 64.355 70.477C64.5443 71.0099 64.5917 71.7428 65.1124 72.0981C65.1361 72.1203 65.1597 72.0981 65.1597 72.0759C65.4674 71.5207 65.0651 70.7435 64.8994 70.1661C64.639 69.3444 64.355 68.5005 63.8816 67.7898C63.7396 67.5678 63.3609 67.7232 63.4319 67.9675Z" fill="black"/>
</g>
<g opacity="0.1">
<path opacity="0.1" d="M67.716 68.1452C67.7396 68.7892 68.0473 69.3444 68.3077 69.9218C68.6154 70.588 68.7811 71.4097 69.1598 72.0315C69.2544 72.1648 69.5148 72.1648 69.5384 71.9871C69.6568 71.3653 69.3254 70.7879 69.0414 70.2327C68.6864 69.5221 68.355 68.767 67.929 68.0786C67.9053 67.9897 67.716 68.0342 67.716 68.1452Z" fill="black"/>
</g>
<g opacity="0.1">
<path opacity="0.1" d="M18.6982 73.4305C20.7574 76.1621 24.4497 77.7832 27.6686 78.9825C31.4083 80.3815 35.5976 81.5585 39.6213 81.9361C40 81.9805 40.071 81.4031 39.716 81.3143C36.071 80.4037 32.4024 79.893 28.8284 78.6938C25.4438 77.539 21.2071 75.9844 18.8876 73.2973C18.7929 73.1863 18.6272 73.3195 18.6982 73.4305Z" fill="black"/>
</g>
<g opacity="0.1">
<path opacity="0.1" d="M7.00591 85.5337C9.01774 84.6232 10.6745 83.2907 12.3314 81.8916C13.1834 81.1588 14.0118 80.4481 14.9112 79.7597C15.8343 79.049 16.9467 78.4939 17.7988 77.6944C17.9408 77.5611 17.7988 77.3391 17.6095 77.4057C15.7396 77.9387 14.1065 79.8041 12.7337 81.0477C10.9586 82.6689 9.13609 84.2678 6.88756 85.3338C6.74555 85.4004 6.86389 85.5781 7.00591 85.5337Z" fill="black"/>
</g>
<g opacity="0.1">
<path opacity="0.1" d="M11.5976 86.0889C14.5089 83.8681 17.4201 81.6251 20.4734 79.6042C20.7574 79.4044 20.4971 78.9602 20.1894 79.1379C17.0888 81.2032 14.0592 83.3573 11.3136 85.8224C11.1479 86 11.432 86.2443 11.5976 86.0889Z" fill="black"/>
</g>
<g opacity="0.1">
<path opacity="0.1" d="M16.6864 86.6219C19.432 84.2679 22.6509 82.4469 25.3964 80.1373C25.5621 80.004 25.3491 79.7375 25.1598 79.8486C22.1065 81.7362 19.1006 84.068 16.4734 86.4442C16.3314 86.5553 16.5444 86.7551 16.6864 86.6219Z" fill="black"/>
</g>
<g opacity="0.1">
<path opacity="0.1" d="M21.2781 86.5331C23.2426 85.0452 25.3728 83.8682 27.432 82.4913C27.645 82.358 27.4556 82.0471 27.2189 82.1582C25.0178 83.2685 23.0533 84.8897 21.1598 86.422C21.0888 86.4887 21.2071 86.5997 21.2781 86.5331Z" fill="black"/>
</g>
<g opacity="0.1">
<path opacity="0.1" d="M25.8934 86.8218C27.1242 86.3776 28.355 85.8891 29.5384 85.3783C30.6982 84.8675 32.0473 84.4234 32.994 83.6017C33.1597 83.4462 32.994 83.202 32.781 83.2464C31.5976 83.5129 30.5088 84.2013 29.4201 84.7121C28.1893 85.2895 26.9349 85.8447 25.6804 86.3998C25.4437 86.5109 25.6331 86.9106 25.8934 86.8218Z" fill="black"/>
</g>
<g opacity="0.1">
<path opacity="0.1" d="M85.7041 65.1027C86.6272 65.991 87.5976 66.8349 88.355 67.8564C89.0414 68.7891 89.4674 69.8773 90.0118 70.8767C91.0769 72.8087 92.355 74.6742 93.6094 76.5174C95.858 79.8263 98.4615 83.7127 101.988 85.9556C102.272 86.1333 102.58 85.7336 102.343 85.5337C100.663 84.0014 98.9349 82.5801 97.4438 80.8923C95.9053 79.1601 94.5799 77.2502 93.3018 75.3404C92.0947 73.5416 90.8639 71.765 89.9171 69.8329C88.9231 67.8564 87.6213 66.3907 85.8461 64.9694C85.7278 64.8806 85.5858 65.0138 85.7041 65.1027Z" fill="black"/>
</g>
<g opacity="0.1">
<path opacity="0.1" d="M91.2189 77.1392C92.6863 80.4703 95.3609 84.4011 98.8638 86.1555C99.0059 86.2221 99.1479 86.0666 99.0295 85.9556C97.6331 84.6232 96.0709 83.5572 94.7928 82.0915C93.4674 80.5592 92.355 78.8492 91.4556 77.0503C91.4082 76.9171 91.1715 77.0059 91.2189 77.1392Z" fill="black"/>
</g>
<g opacity="0.1">
<path opacity="0.1" d="M92.0473 83.1797C92.568 83.8681 93.1124 84.5343 93.7278 85.134C94.2959 85.6891 94.9112 86.311 95.716 86.533C95.8106 86.5552 95.929 86.4442 95.858 86.3554C95.3846 85.7336 94.6745 85.3116 94.0592 84.8008C93.3964 84.2457 92.7811 83.646 92.213 83.0242C92.1657 82.9354 91.9763 83.0686 92.0473 83.1797Z" fill="black"/>
</g>
<g opacity="0.1">
<path opacity="0.1" d="M24.1656 53.1994C22.3668 53.7102 20.994 55.0648 19.7633 56.3307C18.5325 57.6187 17.5147 59.0844 16.8283 60.7278C16.639 61.1719 17.4437 61.4828 17.6331 61.0387C18.3431 59.5286 19.1715 58.1295 20.355 56.8859C21.5384 55.6422 23.0059 54.8428 24.568 54.0655C25.0887 53.8212 24.7337 53.0439 24.1656 53.1994Z" fill="black"/>
</g>
<g opacity="0.1">
<path opacity="0.1" d="M16.8994 62.7709C17.2071 62.7709 17.4911 62.5266 17.4675 62.2379C17.4438 61.9492 17.2071 61.7049 16.8994 61.7049C16.5917 61.7049 16.3077 61.9492 16.3314 62.2379C16.3314 62.5044 16.5681 62.7709 16.8994 62.7709Z" fill="black"/>
</g>
<g opacity="0.1">
<path opacity="0.1" d="M73.9881 52.9773C76.781 53.1105 78.7219 54.9537 80.426 56.8414C80.852 57.3078 81.5858 56.6193 81.1597 56.153C79.5976 54.4652 76.6154 51.4672 73.8698 52.1556C73.3964 52.311 73.5148 52.9551 73.9881 52.9773Z" fill="black"/>
</g>
<g opacity="0.1">
<path opacity="0.1" d="M81.6331 58.1295C81.9171 58.1295 82.2011 57.8852 82.2011 57.5965C82.1775 57.3078 81.9645 57.0635 81.6331 57.0635C81.3491 57.0635 81.065 57.3078 81.065 57.5965C81.0887 57.9074 81.3254 58.1295 81.6331 58.1295Z" fill="black"/>
</g>
</g>
<path d="M49.4911 86.6441L49.4438 86.3332C49.4201 86.2443 49.3491 86.1777 49.2545 86.1999L48.5681 86.2887C48.4971 86.2887 48.4497 86.311 48.4024 86.3332V86.311C48.3787 86.2221 48.3077 86.1555 48.213 86.1777L47.1953 86.311C46.8876 86.3554 46.8166 86.5108 46.7693 86.6885L46.6272 86.6663C46.5799 86.6219 46.5326 86.5552 46.5326 86.5108C46.5089 86.422 46.4379 86.3554 46.3432 86.3776L45.1361 86.533C45.0414 86.533 44.9941 86.6219 44.9941 86.6885C44.9941 86.7329 44.9468 86.8661 44.8284 86.8884L44.355 86.955C44.3314 86.9328 44.3314 86.9328 44.3077 86.8884C44.284 86.8439 44.213 86.7995 44.142 86.8217L42.4379 87.0216C42.3432 87.0438 42.2722 87.1104 42.2959 87.1993L42.4616 88.4873C42.5326 88.9315 42.7456 89.4866 42.7929 89.5977L42.8166 89.842L42.7219 89.953C42.6982 89.9974 42.6746 90.0418 42.6746 90.0863L42.7693 90.7303C42.7693 90.7747 42.7929 90.8191 42.8403 90.8413L42.9823 90.9301L43.0769 91.6408L42.9823 92.1071C42.9823 92.1294 42.9823 92.1738 42.9823 92.196L43.219 92.7734L43.1243 93.2175C43.1243 93.2619 43.1243 93.3286 43.1716 93.3508C43.219 93.3952 43.2663 93.4174 43.3136 93.3952L45.7042 93.1065C45.7515 93.1065 45.7988 93.0843 45.8225 93.0399L45.8462 93.0177C45.9645 93.1287 46.0829 93.2175 46.2485 93.1953L46.7693 93.1287C46.8876 93.1065 47.0059 93.0399 47.0769 92.9955C47.1479 92.951 47.1953 92.9066 47.2426 92.9066L48.0947 92.7956C48.142 92.7956 48.1894 92.7734 48.213 92.729L48.2604 92.6845C48.284 92.7068 48.284 92.7068 48.3077 92.729C48.4024 92.8178 48.4971 92.9066 48.6627 92.9066L49.5148 92.7956C49.6095 92.7734 49.6805 92.7068 49.6568 92.6179L49.6332 92.5069L50.1302 92.5513C50.1775 92.5513 50.2249 92.5291 50.2722 92.5069C50.3195 92.4625 50.3195 92.4181 50.3195 92.3736C50.3195 92.3514 50.0829 90.7969 49.9882 89.9752C49.9882 89.9308 49.9645 89.8864 49.9172 89.8642L49.7752 89.7753L49.6805 89.0425C49.6805 88.9981 49.6568 88.9537 49.6095 88.9315L49.5148 88.8648L49.5858 88.665L49.7278 88.5095C49.7515 88.4651 49.7752 88.4429 49.7515 88.3985L49.6332 87.599C49.6332 87.5768 49.6332 87.5768 49.6332 87.5546L49.3965 86.9994L49.4911 86.7107C49.4911 86.6885 49.5148 86.6663 49.4911 86.6441ZM47.5503 87.5324L48.1184 87.7989L48.071 88.776L46.5562 87.9765L47.5503 87.5324ZM44.8758 92.0849L44.1184 91.6852L44.3077 90.5304L45.8462 91.6408L44.8758 92.0849ZM48.4734 91.4853L47.6687 91.5742L43.6213 88.132L44.2367 87.9099L48.7811 90.375L48.4734 91.4853Z" fill="#FF5252"/>
<path fill-rule="evenodd" clip-rule="evenodd" d="M69.4911 84.0893C69.4911 84.0893 69.4675 84.1115 69.4438 84.1115C69.3728 84.2448 69.4438 84.2226 69.3018 84.3558C69.3491 84.5557 69.3728 84.5779 69.4675 84.7555C69.4675 84.7555 69.4675 84.7555 69.4675 84.7777C69.4201 84.8 69.3728 84.8222 69.3491 84.8222C69.3491 84.8222 69.3965 84.9332 69.3965 85.0442C69.3965 85.1775 69.1361 85.555 69.0414 85.5994C68.9231 85.6438 68.7811 85.5772 68.5681 85.5328C68.4971 85.5328 68.284 85.444 68.1894 85.444C68.0947 85.444 68.071 85.6438 68.1894 85.6661C68.2367 85.6883 68.3314 85.6883 68.355 85.7549C68.4734 85.9103 68.5444 86.5766 68.426 86.732C68.355 86.7542 68.284 86.7098 68.2367 86.732C68.1657 86.7986 68.284 87.0429 68.3314 87.0873C69.0178 87.5093 69.0414 87.909 69.3491 88.1533C69.4675 88.1311 69.4201 88.2421 69.5148 88.3532C69.5621 88.4198 69.5621 88.5308 69.5385 88.5753C69.5621 88.6197 69.5621 88.6863 69.5858 88.7307C69.5858 88.7529 69.5858 88.7751 69.5858 88.7751C69.5858 88.8195 69.6095 88.864 69.6095 88.9084C69.6095 88.975 69.6095 89.086 69.6095 89.1527C69.6095 89.2859 69.7515 89.3747 69.7278 89.5302C69.7515 89.619 69.7515 89.5968 69.7041 89.6634C69.7278 89.7967 69.7752 90.0632 69.8225 90.1298C69.8698 90.1964 70.1775 90.3963 70.2485 90.4185C70.4142 90.4407 70.6272 90.3963 70.6036 90.6184C70.2012 90.8404 69.8698 90.7072 69.6331 90.7516V90.796C69.4911 90.8182 69.3491 90.8182 69.3254 90.8182C69.3254 90.7738 69.3018 90.4851 69.3018 90.4407C69.3018 90.4185 69.3254 90.3741 69.3254 90.3519C69.3254 90.3075 69.2071 89.9521 69.1834 89.8411C69.0651 89.7967 69.0178 89.5968 68.9941 89.508C68.9468 89.4413 68.9231 89.3303 68.8994 89.2193C68.8757 89.1749 68.8284 89.1082 68.8284 89.0416C68.8284 88.9972 68.8757 88.975 68.8757 88.9306C68.8757 88.8862 68.8521 88.8417 68.8521 88.8195C68.8521 88.6863 68.8284 88.6197 68.7337 88.5753C68.5207 88.6197 68.497 88.6419 68.355 88.4864C68.3077 88.442 67.929 88.0867 67.8817 88.0645C67.6213 88.0201 67.6686 88.0423 67.5266 87.8868C67.5266 87.8868 67.4556 87.9312 67.432 88.0201C67.3846 88.1533 67.3136 88.5753 67.3136 88.7307C67.3136 88.8195 67.361 88.8862 67.3373 88.9528C67.3136 88.9972 67.2426 89.0416 67.2189 89.0638C67.1716 89.2193 67.2189 89.1971 67.1006 89.3303C67.0769 89.3747 67.1006 89.4191 67.0769 89.4636C67.0769 89.4858 67.0533 89.508 67.0533 89.508C67.0296 89.5746 67.1243 89.6634 67.1243 89.6856C67.1243 89.7745 67.1006 89.8855 67.0769 89.9743C67.0533 90.152 67.1006 90.3741 67.0533 90.4851C67.0296 90.5517 66.9349 90.5073 66.8639 90.5739C66.8639 90.6184 66.8166 90.8626 66.8166 90.9293C66.8402 91.0625 66.8876 91.1735 66.9113 91.3068C66.9349 91.3734 67.0059 91.4178 67.0296 91.4845C67.0296 91.5733 66.7219 91.6399 66.5562 91.6399C66.4379 91.6399 66.3905 91.5733 66.3669 91.4845C66.3432 91.3734 66.4142 90.6406 66.3905 90.5962C66.1775 90.4407 66.3432 90.2186 66.3669 90.0188C66.3669 89.9299 66.3195 89.8189 66.3432 89.73C66.3905 89.619 66.4142 89.4858 66.4615 89.3747C66.5562 89.2415 66.5089 89.2637 66.5326 89.1527C66.5562 89.0638 66.6272 88.9972 66.5562 88.8862C66.4142 88.6641 66.5089 88.2866 66.4615 88.0423C66.4379 88.0201 66.3432 88.0423 66.2959 87.9756C66.2249 87.8202 66.2485 87.5315 66.2959 87.5093C66.3195 87.4871 66.3432 87.4871 66.3669 87.4871C66.3432 87.376 66.0592 86.7542 66.1539 86.7098C66.2012 86.6876 66.3432 86.6432 66.3669 86.621C66.3669 86.5988 66.3195 86.5322 66.2959 86.5322C66.2485 86.5322 66.1775 86.5322 66.1065 86.5322C65.8935 86.5322 65.8935 85.7327 65.8935 85.7327C65.9408 85.6438 66.2249 85.6883 66.2249 85.555C66.2959 85.4218 66.0355 85.0664 66.2012 84.5113C66.2722 84.3336 66.4142 84.1115 66.6509 84.1337C66.7219 84.1337 66.7219 84.2448 66.8166 84.1115C66.7929 84.0449 66.7692 84.0005 66.7219 83.9561C66.3432 83.3787 67.0059 82.8901 67.6213 83.1344C67.6923 83.1344 67.716 83.1566 67.7633 83.1788C67.8343 83.312 68.0237 83.5341 67.929 83.7118C67.8817 83.734 67.8107 83.7784 67.7633 83.8228C67.787 83.8894 67.787 83.9339 67.8107 83.9561C67.8343 83.9783 67.858 84.0005 67.8107 84.0227V84.0449C67.929 84.0449 68.0473 83.9783 68.142 83.9117L68.2367 83.8894L68.213 83.7784H68.2367H68.2604L68.2367 83.6896H68.284L68.3314 83.845L68.4497 83.8228L68.4734 83.8672L70.2722 83.4897L70.2959 83.5785L70.3669 83.5563L70.2959 83.2454L70.3669 83.2232L70.4379 83.4897L70.5799 83.4675L70.6272 83.6229L71.1006 83.5119V83.4675L71.1716 83.4453V83.4675L71.3846 83.4231L71.4083 83.5563L71.1953 83.6007V83.6229L71.1243 83.6452V83.6007L70.6509 83.7118V83.7562C70.5799 83.7784 70.5089 83.7784 70.4379 83.8006V83.7784L70.3432 83.8006L70.3669 83.8894L69.4911 84.0893Z" fill="white"/>
<path d="M47.3373 66.1686C50.3432 66.5017 54.4616 66.3463 57.1125 64.8584C57.4201 64.6807 57.2071 64.2588 56.8758 64.3254C55.361 64.5919 53.9409 65.1915 52.4024 65.4802C50.7219 65.7911 49.0414 65.8577 47.3136 65.8799C47.1243 65.8799 47.1479 66.1464 47.3373 66.1686Z" fill="white"/>
<path d="M45.7988 68.878C47.6686 69.1223 49.5858 69.1223 51.4556 68.9446C53.1124 68.7892 55.1243 68.7003 56.6154 67.9897C56.8521 67.8787 56.7101 67.5677 56.4971 67.5677C54.9349 67.4567 53.2071 68.0341 51.645 68.3006C49.7042 68.6115 47.787 68.7892 45.8225 68.767C45.7515 68.7447 45.7278 68.878 45.7988 68.878Z" fill="white"/>
</svg>
